<svg xmlns="http://www.w3.org/2000/svg" width="128" height="128" fill="none" viewBox="0 0 128 128" id="brain-chipset">
  <path stroke="#000" stroke-linecap="round" stroke-width="7" d="M48.0709 40.6025C45.9703 38.6424 44.6558 35.842 44.6558 32.7329C44.6558 26.8053 49.4339 22 55.3279 22C61.2219 22 66 26.8053 66 32.7329V94.1252M66 94.2671C66 100.195 61.2219 105 55.3279 105C49.4339 105 44.6558 100.195 44.6558 94.2671C44.6558 91.158 46.5 88.5 48.0709 86.3975M48.0709 86.3975C46.5 87.8634 44.0883 90.4954 41.7059 91.1375C36.0127 92.6716 30.1608 89.2738 28.6353 83.5481C27.6011 79.6665 28.8208 75.7116 31.4876 73.0887M48.0709 86.3975L48.5 86M30.9956 52.6129C28.6745 50.0035 27.667 46.305 28.6353 42.6708C30.1608 36.9451 36.0127 33.5473 41.7059 35.0815C42.7769 35.3701 43.7659 35.8127 44.6558 36.3792M35.2644 51.9027C30.324 51.6227 25.6976 54.8466 24.3663 59.8435C22.8408 65.5691 26.2194 71.4544 31.9126 72.9886C33.0352 73.2911 34.1639 73.4018 35.2644 73.3408M47.7053 65.998C47.4269 70.9665 50.6326 75.6193 55.6011 76.9582C59.0594 77.8901 62.5762 77.0023 65.1463 74.8783"></path>
  <path stroke="#000" stroke-width="7" d="M66 41H75C85.3709 41 90.5563 41 93.7782 44.2218C97 47.4437 97 52.6291 97 63V66C97 76.3709 97 81.5563 93.7782 84.7782C90.5563 88 85.3709 88 75 88H66"></path>
  <path stroke="#000" stroke-width="7" d="M63 55H74C77.7712 55 79.6569 55 80.8284 56.1716C82 57.3431 82 59.2288 82 63V66C82 69.7712 82 71.6569 80.8284 72.8284C79.6569 74 77.7712 74 74 74H63"></path>
  <path stroke="#000" stroke-linecap="round" stroke-width="7" d="M105 52L97 52M82 96L82 88M82 41L82 33M105 77L97 77"></path>
</svg>
